<?xml version="1.0" standalone="no"?>
<!DOCTYPE svg PUBLIC "-//W3C//DTD SVG 20010904//EN"
 "http://www.w3.org/TR/2001/REC-SVG-20010904/DTD/svg10.dtd">
<svg version="1.0" xmlns="http://www.w3.org/2000/svg"
 width="500.000000pt" height="500.000000pt" viewBox="0 0 500.000000 500.000000"
 preserveAspectRatio="xMidYMid meet">

<g transform="translate(0.000000,500.000000) scale(0.100000,-0.100000)"
fill="#000000" stroke="none">
<path d="M888 3952 c-2 -4 -2 -111 0 -239 4 -263 -5 -241 100 -235 l63 4 -3
141 -3 142 55 -1 c30 -1 136 -9 235 -19 99 -9 223 -21 275 -25 143 -13 503
-24 533 -16 26 6 145 141 134 152 -3 3 -126 10 -274 15 -388 13 -764 42 -1080
83 -18 3 -34 2 -35 -2z"/>
<path d="M3980 3950 c-160 -24 -429 -45 -875 -70 -277 -15 -259 -10 -337 -93
-38 -39 -68 -74 -68 -79 0 -19 349 -6 725 27 282 24 449 33 459 24 5 -4 9 -48
10 -96 l1 -88 75 -7 c41 -5 77 -5 81 0 8 9 -1 392 -10 391 -3 -1 -31 -5 -61
-9z"/>
<path d="M3884 3441 c-17 -10 -42 -34 -55 -53 -13 -18 -28 -36 -34 -40 -5 -4
-174 -8 -375 -8 l-365 0 -161 -167 -162 -168 -858 0 c-473 -1 -887 -2 -921 -3
l-63 -2 0 -80 0 -80 923 0 c507 0 940 3 962 7 43 7 64 26 262 237 l101 109 78
-6 c42 -4 190 -7 327 -7 l250 0 48 -52 49 -53 78 0 c67 0 84 4 115 25 48 32
87 109 87 169 -1 68 -43 140 -100 169 -57 28 -142 30 -186 3z"/>
<path d="M3898 2693 l-3 -268 -80 -12 c-44 -7 -147 -19 -230 -27 -82 -9 -199
-21 -260 -28 -80 -9 -314 -13 -850 -13 -634 0 -761 3 -885 17 -80 10 -230 25
-335 34 -104 9 -192 19 -195 21 -3 3 -7 71 -8 151 -3 97 -8 150 -15 154 -7 4
-45 8 -84 8 l-73 0 0 -225 c0 -172 3 -227 13 -230 6 -2 57 -9 112 -15 55 -5
199 -21 320 -34 121 -14 306 -30 410 -36 105 -7 228 -15 275 -18 l85 -7 -3
-34 c-3 -35 -58 -217 -92 -306 -11 -27 -23 -65 -26 -82 l-6 -33 506 0 c278 0
506 1 506 3 0 1 -29 91 -65 200 -36 109 -65 211 -65 227 l0 28 93 6 c50 3 175
10 277 17 175 10 354 27 675 64 77 9 146 18 153 20 9 3 12 81 12 345 l0 340
-80 0 -80 0 -2 -267z m-1206 -648 c20 -60 38 -121 40 -135 l3 -25 -259 -8
c-145 -4 -264 -3 -268 1 -9 9 65 247 84 270 8 9 54 12 187 10 l176 -3 37 -110z"/>
<path d="M176 1176 c-83 -31 -127 -82 -133 -153 -7 -83 48 -143 168 -182 79
-26 103 -49 103 -98 0 -47 -31 -73 -88 -73 -45 1 -75 20 -97 63 l-15 27 -48
-49 -48 -49 22 -39 c27 -49 61 -70 127 -79 169 -22 303 68 303 203 0 103 -49
157 -195 213 -33 13 -69 31 -79 41 -19 18 -19 19 -1 39 24 27 87 27 132 -1
l34 -21 39 44 39 43 -22 18 c-71 58 -170 79 -241 53z"/>
<path d="M1907 1184 c-4 -4 -7 -148 -7 -321 l0 -313 80 0 79 0 3 101 3 100 80
-100 80 -100 93 0 92 -1 -100 126 c-97 124 -110 144 -90 144 16 0 80 61 96 91
21 41 18 115 -7 158 -28 51 -103 100 -168 110 -69 11 -225 14 -234 5z m251
-140 c22 -15 29 -54 16 -89 -8 -20 -56 -45 -89 -45 -25 0 -25 1 -25 75 l0 75
38 0 c21 0 48 -7 60 -16z"/>
<path d="M2670 1174 c-87 -32 -143 -82 -191 -174 -19 -38 -23 -60 -23 -135 0
-79 3 -97 27 -143 35 -67 90 -121 152 -152 42 -20 66 -24 146 -24 91 -1 100 1
165 34 232 118 232 459 0 577 -66 34 -206 42 -276 17z m210 -137 c114 -60 122
-261 13 -333 -88 -59 -224 -30 -269 57 -16 32 -22 139 -9 179 33 105 162 152
265 97z"/>
<path d="M3607 1180 c-179 -46 -280 -204 -243 -382 23 -106 86 -186 181 -230
75 -34 199 -33 278 4 l57 27 0 75 c0 42 -3 76 -6 76 -4 0 -31 -16 -61 -36 -67
-44 -117 -53 -179 -29 -78 30 -124 95 -124 178 0 162 143 243 295 167 33 -16
63 -30 68 -30 4 0 7 31 7 69 l0 69 -51 21 c-58 25 -165 35 -222 21z"/>
<path d="M4109 1180 c-96 -29 -160 -124 -138 -203 14 -50 75 -102 154 -132 85
-32 115 -58 115 -100 0 -48 -31 -75 -86 -75 -37 0 -51 6 -75 29 -16 16 -29 37
-29 46 0 13 -9 9 -37 -16 -64 -55 -68 -65 -47 -105 27 -50 73 -75 149 -82 125
-10 220 35 261 121 60 129 7 223 -166 294 -102 42 -116 56 -84 87 22 23 92 20
129 -4 l30 -20 42 42 43 42 -47 33 c-69 49 -144 64 -214 43z"/>
<path d="M4478 1184 c-5 -4 -8 -148 -8 -321 l0 -313 75 0 75 0 0 100 c0 55 3
100 8 100 4 -1 42 -46 85 -100 l77 -100 91 0 c69 0 88 3 83 13 -9 15 -150 194
-177 224 l-19 21 41 28 c58 38 83 82 83 150 1 73 -35 127 -112 168 -49 27 -65
30 -174 34 -67 2 -124 1 -128 -4z m248 -150 c20 -19 24 -31 19 -52 -10 -41
-38 -64 -82 -66 l-38 -1 -3 73 -3 72 41 0 c31 0 47 -6 66 -26z"/>
<path d="M540 865 l0 -315 75 0 75 0 0 315 0 315 -75 0 -75 0 0 -315z"/>
<path d="M805 1158 c-3 -13 -14 -111 -25 -219 -11 -108 -24 -227 -30 -265 -5
-38 -10 -81 -10 -96 l0 -28 73 0 73 0 13 158 c6 87 15 169 18 182 5 17 20 -28
52 -155 l46 -180 33 -3 c20 -2 34 2 36 10 64 217 80 270 90 308 7 24 15 40 18
35 3 -6 9 -55 12 -110 4 -55 9 -133 12 -172 l6 -73 69 0 69 0 0 33 c0 17 -4
70 -10 117 -5 47 -14 148 -20 225 -5 77 -13 166 -16 198 l-7 57 -77 0 -77 0
-37 -112 c-64 -197 -55 -194 -108 -33 l-46 140 -76 3 c-72 3 -76 2 -81 -20z"/>
<path d="M1410 865 l0 -315 75 0 75 0 0 119 0 118 58 6 c57 5 129 33 166 66
46 41 68 127 47 184 -15 38 -70 96 -112 118 -32 16 -59 19 -174 19 l-135 0 0
-315z m260 175 c47 -47 9 -120 -62 -120 l-38 0 0 70 0 70 40 0 c27 0 47 -7 60
-20z"/>
</g>
</svg>
