<svg width="20" height="22" viewBox="0 0 20 22" fill="none" xmlns="http://www.w3.org/2000/svg">
<g id="Icon 3">
<path id="Color" fill-rule="evenodd" clip-rule="evenodd" d="M11.6219 18.0324C11.5678 18.0324 11.5121 18.0298 11.4564 18.0235C10.7457 17.946 10.1884 17.3927 10.035 16.6132L7.8682 5.5726L5.63681 11.2586C5.5084 11.5847 5.21686 11.7958 4.89543 11.7958H2.47264C2.02604 11.7958 1.66504 11.3967 1.66504 10.9049C1.66504 10.4122 2.02604 10.0139 2.47264 10.0139H4.36565L6.38949 4.85628C6.67619 4.12927 7.30773 3.70607 8.02568 3.78536C8.73637 3.86288 9.29361 4.41615 9.44706 5.19573L11.6138 16.2363L13.8452 10.5503C13.9736 10.2242 14.2644 10.0139 14.5866 10.0139H17.0094C17.456 10.0139 17.817 10.4122 17.817 10.9049C17.817 11.3967 17.456 11.7958 17.0094 11.7958H15.1164L13.0926 16.9526C12.8285 17.6235 12.2623 18.0324 11.6219 18.0324Z" fill="black" fill-opacity="0.45"/>
</g>
</svg>
