<svg width="23" height="33" viewBox="0 0 23 33" fill="none" xmlns="http://www.w3.org/2000/svg">
<path d="M2.67988 29.6535C2.23193 29.6535 1.8783 29.4469 1.619 29.0336C1.37997 28.6517 1.25128 28.1508 1.23293 27.5309L1.23047 27.3736V5.22585C1.23047 4.52421 1.35998 3.9689 1.619 3.55994C1.85804 3.18201 2.17771 2.97851 2.57802 2.94944L2.68029 2.94531H13.6903C14.1325 2.94531 14.4833 3.14999 14.7426 3.55935C14.9816 3.93649 15.1103 4.43876 15.1286 5.06615L15.1307 5.22526V9.10865H20.3262C20.7342 9.10865 21.0643 9.28485 21.3165 9.63724L21.3781 9.72917C21.6174 10.1102 21.7461 10.6109 21.7641 11.2313L21.7666 11.3886V27.3736C21.7666 28.0666 21.6371 28.6199 21.3781 29.0336C21.139 29.4146 20.8218 29.6201 20.4264 29.65L20.3258 29.6535H2.67988ZM15.1303 27.3736C15.1303 27.4639 15.1281 27.5517 15.1237 27.637H19.8625C20.0315 27.637 20.1567 27.5784 20.2383 27.4614C20.3081 27.3608 20.348 27.2115 20.3578 27.0135L20.3607 26.9104V11.8524C20.3607 11.6017 20.3199 11.4179 20.2383 11.3008C20.1685 11.2006 20.0665 11.1435 19.9323 11.1293L19.8625 11.1258L15.1303 11.1252V27.3736ZM13.2274 4.96244H3.14275C2.96806 4.96244 2.83992 5.02078 2.75833 5.13746C2.6885 5.23803 2.64867 5.38731 2.63881 5.58531L2.63634 5.68903V26.9104C2.63634 27.1606 2.677 27.3443 2.75833 27.4614C2.82842 27.5615 2.93247 27.6187 3.07047 27.6328L3.14275 27.637L5.1417 27.6364V23.9416C5.1417 23.4477 5.21289 23.0732 5.35527 22.8178L5.39963 22.7447C5.5557 22.5129 5.78762 22.3866 6.09538 22.3658L6.18984 22.3629H10.1713C10.5319 22.3629 10.7967 22.4902 10.9656 22.7447C11.1192 22.9765 11.203 23.3271 11.217 23.7966L11.219 23.941L11.2186 27.6364H13.227C13.396 27.6364 13.5211 27.578 13.6024 27.4614C13.6722 27.3608 13.7122 27.2115 13.7223 27.0135L13.7248 26.9104V5.68903C13.7248 5.43838 13.684 5.25453 13.6024 5.13746C13.5211 5.02078 13.3964 4.96244 13.2274 4.96244ZM9.79592 24.004H6.56524C6.39602 24.004 6.30361 24.1144 6.288 24.3352L6.28595 24.4047L6.28554 27.6364H10.0748V24.4047C10.0748 24.162 9.99799 24.0294 9.84438 24.007L9.79592 24.004ZM18.4484 22.7636C18.6297 22.7636 18.7279 22.8828 18.7429 23.1213L18.745 23.1896V25.1437C18.745 25.4042 18.6619 25.5452 18.4957 25.5668L18.4484 25.5698H17.0426C16.8668 25.5698 16.7713 25.4505 16.7563 25.2121L16.7546 25.1437V23.1896C16.7546 22.9292 16.8354 22.7881 16.997 22.7665L17.0426 22.7636H18.4484ZM18.4484 17.9786C18.6297 17.9786 18.7279 18.0978 18.7429 18.3363L18.745 18.404V20.3581C18.745 20.6186 18.6619 20.7596 18.4957 20.7812L18.4484 20.7842H17.0426C16.8668 20.7842 16.7713 20.6649 16.7563 20.4265L16.7546 20.3581V18.404C16.7546 18.1436 16.8354 18.0025 16.997 17.9809L17.0426 17.978L18.4484 17.9786ZM6.98417 16.9632C7.20486 16.9632 7.32355 17.1092 7.34025 17.4011L7.34231 17.4771V19.8448C7.34231 20.1607 7.24059 20.3308 7.03715 20.3552L6.98417 20.3581H5.28175C5.07229 20.3581 4.95948 20.2124 4.94333 19.9209L4.94127 19.8443V17.4771C4.94127 17.1612 5.03793 16.9909 5.23124 16.9662L5.28175 16.9632H6.98417ZM11.0708 16.9632C11.2909 16.9632 11.4095 17.1092 11.4265 17.4011L11.4285 17.4771V19.8448C11.4285 20.1607 11.3268 20.3308 11.1233 20.3552L11.0704 20.3581H9.37658C9.16164 20.3581 9.04595 20.2124 9.02952 19.9209L9.02747 19.8443V17.4771C9.02747 17.1612 9.12659 16.9909 9.32483 16.9662L9.37658 16.9632H11.0708ZM18.4484 13.1924C18.6297 13.1924 18.7279 13.3118 18.7429 13.5507L18.745 13.6185V15.5731C18.745 15.8332 18.6619 15.974 18.4957 15.9956L18.4484 15.9986H17.0426C16.8668 15.9986 16.7713 15.8793 16.7563 15.6409L16.7546 15.5731V13.6185C16.7546 13.3588 16.8354 13.2177 16.997 13.1953L17.0426 13.1924H18.4484ZM6.98417 12.002C7.20486 12.002 7.32355 12.1482 7.34025 12.4405L7.34231 12.5159V14.8837C7.34231 15.2003 7.24059 15.3706 7.03715 15.3946L6.98417 15.3975H5.28175C5.07229 15.3975 4.95948 15.2516 4.94333 14.9597L4.94127 14.8837V12.5159C4.94127 12.2 5.03793 12.0299 5.23124 12.0056L5.28175 12.0026L6.98417 12.002ZM11.0708 12.002C11.2909 12.002 11.4095 12.1482 11.4265 12.4405L11.4285 12.5159V14.8837C11.4285 15.2003 11.3268 15.3706 11.1233 15.3946L11.0704 15.3975H9.37658C9.16164 15.3975 9.04595 15.2516 9.02952 14.9597L9.02747 14.8837V12.5159C9.02747 12.2 9.12659 12.0299 9.32483 12.0056L9.37658 12.0026L11.0708 12.002ZM6.98417 7.04203C7.20486 7.04203 7.32355 7.18778 7.34025 7.47928L7.34231 7.55588V9.92304C7.34231 10.2389 7.24059 10.409 7.03715 10.4334L6.98417 10.4369H5.28175C5.07229 10.4369 4.95948 10.291 4.94333 9.99906L4.94127 9.92304V7.55529C4.94127 7.23944 5.03793 7.06933 5.23124 7.04497L5.28175 7.04203H6.98417ZM11.0708 7.04203C11.2909 7.04203 11.4095 7.18778 11.4265 7.47928L11.4285 7.55588V9.92304C11.4285 10.2389 11.3268 10.409 11.1233 10.4334L11.0704 10.4369H9.37658C9.16164 10.4369 9.04595 10.291 9.02952 9.99906L9.02747 9.92304V7.55529C9.02747 7.23944 9.12659 7.06933 9.32483 7.04497L9.37658 7.04203H11.0708Z" fill="black"/>
</svg>
