<svg width="33" height="31" viewBox="0 0 33 31" fill="none" xmlns="http://www.w3.org/2000/svg">
<g id="Icons / Cloud / Download">
<path id="Color" fill-rule="evenodd" clip-rule="evenodd" d="M16.5 3.87488C20.0489 3.87488 23.1756 6.02034 24.3031 9.09967C27.6567 9.52721 30.25 12.2345 30.25 15.4999C30.25 17.077 29.6395 18.5947 28.5312 19.774C28.259 20.062 27.8809 20.2106 27.5 20.2106C27.1769 20.2106 26.8524 20.1047 26.5897 19.8877C26.0219 19.4136 25.9669 18.5986 26.4701 18.0625C27.1342 17.3573 27.5 16.4454 27.5 15.4999C27.5 13.3635 25.6493 11.6249 23.375 11.6249H23.2375C22.583 11.6249 22.0193 11.1909 21.89 10.5877C21.3757 8.1955 19.1098 6.45821 16.5 6.45821C13.8916 6.45821 11.6242 8.1955 11.1114 10.5877C10.9821 11.1909 10.417 11.6249 9.7625 11.6249H9.625C7.35075 11.6249 5.5 13.3635 5.5 15.4999C5.5 16.4454 5.86575 17.3573 6.53125 18.0625C7.03312 18.5986 6.9795 19.4136 6.41025 19.8877C5.83962 20.3604 4.972 20.3075 4.47013 19.774C3.3605 18.5947 2.75 17.077 2.75 15.4999C2.75 12.2345 5.34325 9.52721 8.69687 9.09967C9.82575 6.02034 12.9525 3.87488 16.5 3.87488ZM17.8755 22.7899L19.6699 21.1624C20.2172 20.6677 21.0875 20.6819 21.6142 21.1947C22.1422 21.7088 22.1271 22.5264 21.5812 23.0211L17.4562 26.7631C17.1881 27.0033 16.8443 27.1247 16.5005 27.1247C16.1485 27.1247 15.7965 26.9995 15.5284 26.7463L11.4034 22.8713C10.8658 22.3675 10.8658 21.5499 11.4034 21.0449C11.9397 20.5411 12.8101 20.5411 13.3477 21.0449L15.1256 22.715V15.4997C15.1256 14.7855 15.7415 14.2081 16.5005 14.2081C17.2595 14.2081 17.8755 14.7855 17.8755 15.4997V22.7899Z" fill="#145EA8"/>
</g>
</svg>
