<svg width="19" height="18" viewBox="0 0 19 18" fill="none" xmlns="http://www.w3.org/2000/svg">
<path id="Vector" d="M2.91316 0H15.5368C16.3095 0 17.0504 0.364956 17.5968 1.01458C18.1431 1.66421 18.45 2.54529 18.45 3.464V13.856C18.45 14.7747 18.1431 15.6558 17.5968 16.3054C17.0504 16.955 16.3095 17.32 15.5368 17.32H2.91316C2.14054 17.32 1.39957 16.955 0.853244 16.3054C0.306921 15.6558 0 14.7747 0 13.856V3.464C0 2.54529 0.306921 1.66421 0.853244 1.01458C1.39957 0.364956 2.14054 0 2.91316 0ZM2.91316 1.15467C2.42763 1.15467 2.00037 1.35096 1.67021 1.69736L9.225 7.50533L16.7798 1.69736C16.4496 1.35096 16.0224 1.15467 15.5368 1.15467H2.91316ZM9.225 8.90248L1.09729 2.63264C1.01961 2.88667 0.971053 3.17533 0.971053 3.464V13.856C0.971053 14.4685 1.17567 15.0559 1.53988 15.4889C1.9041 15.922 2.39808 16.1653 2.91316 16.1653H15.5368C16.0519 16.1653 16.5459 15.922 16.9101 15.4889C17.2743 15.0559 17.4789 14.4685 17.4789 13.856V3.464C17.4789 3.17533 17.4304 2.88667 17.3527 2.63264L9.225 8.90248Z" fill="black"/>
</svg>
