<svg width="19" height="19" viewBox="0 0 19 19" fill="none" xmlns="http://www.w3.org/2000/svg">
<g clip-path="url(#clip0_556_11891)">
<path d="M14.6622 8.77539H3.90149C3.0525 8.77539 2.36426 9.42158 2.36426 10.2187V15.2702C2.36426 16.0673 3.0525 16.7135 3.90149 16.7135H14.6622C15.5111 16.7135 16.1994 16.0673 16.1994 15.2702V10.2187C16.1994 9.42158 15.5111 8.77539 14.6622 8.77539Z" stroke="#203060" stroke-linecap="round" stroke-linejoin="round"/>
<path d="M5.43848 8.7751V5.88851C5.43848 4.93155 5.84337 4.01378 6.56409 3.3371C7.28481 2.66043 8.26232 2.28027 9.28157 2.28027C10.3008 2.28027 11.2783 2.66043 11.999 3.3371C12.7198 4.01378 13.1247 4.93155 13.1247 5.88851V8.7751" stroke="#203060" stroke-linecap="round" stroke-linejoin="round"/>
</g>
<defs>
<clipPath id="clip0_556_11891">
<rect width="18.4468" height="17.3195" fill="white" transform="translate(0.0585938 0.836914)"/>
</clipPath>
</defs>
</svg>
