<svg width="24" height="28" viewBox="0 0 24 28" fill="none" xmlns="http://www.w3.org/2000/svg">
<path d="M10.9523 12.9826C10.0293 12.9826 9.12703 12.6633 8.3596 12.0651C7.59217 11.4668 6.99403 10.6165 6.64082 9.6217C6.28762 8.62685 6.1952 7.53216 6.37526 6.47604C6.55533 5.41992 6.99979 4.44981 7.65243 3.68839C8.30508 2.92697 9.1366 2.40844 10.0418 2.19837C10.9471 1.98829 11.8854 2.09611 12.7381 2.50819C13.5908 2.92026 14.3197 3.61809 14.8325 4.51343C15.3452 5.40876 15.6189 6.46139 15.6189 7.5382C15.6189 8.98215 15.1273 10.367 14.2521 11.388C13.3769 12.409 12.1899 12.9826 10.9523 12.9826ZM10.9523 3.71153C10.293 3.71153 9.64853 3.93961 9.10036 4.36693C8.5522 4.79424 8.12496 5.4016 7.87266 6.11221C7.62037 6.82281 7.55436 7.60473 7.68298 8.3591C7.8116 9.11347 8.12906 9.80641 8.59524 10.3503C9.06141 10.8942 9.65536 11.2645 10.302 11.4146C10.9486 11.5646 11.6188 11.4876 12.2279 11.1933C12.837 10.8989 13.3576 10.4005 13.7238 9.76097C14.0901 9.12145 14.2856 8.36957 14.2856 7.60042C14.2856 7.08972 14.1994 6.58403 14.0319 6.11221C13.8643 5.64038 13.6188 5.21168 13.3093 4.85056C12.9998 4.48944 12.6323 4.20299 12.2279 4.00755C11.8235 3.81212 11.39 3.71153 10.9523 3.71153ZM14.6656 13.9238C11.0579 12.9761 7.28348 13.4323 3.91893 15.2226C3.45619 15.4805 3.06577 15.8865 2.79313 16.3932C2.52049 16.8999 2.37684 17.4866 2.37893 18.0849V22.7126C2.37893 22.8148 2.39617 22.9159 2.42968 23.0103C2.46318 23.1046 2.51229 23.1904 2.57419 23.2626C2.6361 23.3348 2.70959 23.3921 2.79047 23.4312C2.87136 23.4703 2.95805 23.4904 3.0456 23.4904C3.13314 23.4904 3.21983 23.4703 3.30072 23.4312C3.3816 23.3921 3.45509 23.3348 3.517 23.2626C3.57891 23.1904 3.62801 23.1046 3.66151 23.0103C3.69502 22.9159 3.71226 22.8148 3.71226 22.7126V18.0849C3.70646 17.7821 3.77654 17.4839 3.91391 17.2269C4.05129 16.9699 4.24997 16.7653 4.4856 16.6382C6.51237 15.5461 8.71978 14.9859 10.9523 14.9971C12.2031 14.9954 13.4497 15.1677 14.6656 15.5104V13.9238ZM14.7589 21.3204H18.8523V22.4093H14.7589V21.3204Z" fill="black"/>
<path d="M22.1146 16.6985H18.668V18.254H21.448V24.764H12.0013V18.254H16.2013V18.5807C16.2013 18.787 16.2715 18.9848 16.3966 19.1306C16.5216 19.2765 16.6912 19.3585 16.868 19.3585C17.0448 19.3585 17.2143 19.2765 17.3394 19.1306C17.4644 18.9848 17.5346 18.787 17.5346 18.5807V15.5551C17.5346 15.3488 17.4644 15.151 17.3394 15.0051C17.2143 14.8593 17.0448 14.7773 16.868 14.7773C16.6912 14.7773 16.5216 14.8593 16.3966 15.0051C16.2715 15.151 16.2013 15.3488 16.2013 15.5551V16.6985H11.3346C11.1578 16.6985 10.9883 16.7804 10.8632 16.9263C10.7382 17.0721 10.668 17.27 10.668 17.4762V25.5418C10.668 25.7481 10.7382 25.9459 10.8632 26.0918C10.9883 26.2376 11.1578 26.3196 11.3346 26.3196H22.1146C22.2914 26.3196 22.461 26.2376 22.586 26.0918C22.7111 25.9459 22.7813 25.7481 22.7813 25.5418V17.4762C22.7813 17.27 22.7111 17.0721 22.586 16.9263C22.461 16.7804 22.2914 16.6985 22.1146 16.6985Z" fill="black"/>
</svg>
