<?xml version="1.0" standalone="no"?>
<!DOCTYPE svg PUBLIC "-//W3C//DTD SVG 20010904//EN"
 "http://www.w3.org/TR/2001/REC-SVG-20010904/DTD/svg10.dtd">
<svg version="1.0" xmlns="http://www.w3.org/2000/svg"
 width="169.000000pt" height="60.000000pt" viewBox="0 0 169.000000 60.000000"
 preserveAspectRatio="xMidYMid meet">

<g transform="translate(0.000000,60.000000) scale(0.100000,-0.100000)"
fill="#000000" stroke="none">
<path d="M520 522 c0 -5 14 -28 30 -50 29 -41 32 -42 85 -42 l55 0 -27 43
c-15 23 -32 45 -38 49 -14 11 -105 10 -105 0z"/>
<path d="M760 360 c0 -27 5 -50 10 -50 6 0 10 5 10 10 0 6 11 15 25 20 52 20
36 70 -22 70 -21 0 -23 -4 -23 -50z m47 4 c-9 -9 -28 6 -21 18 4 6 10 6 17 -1
6 -6 8 -13 4 -17z"/>
<path d="M850 361 l0 -51 37 0 c38 0 37 14 -2 23 -19 5 -19 5 3 12 12 4 22 11
22 16 0 5 -10 9 -22 10 l-23 1 23 6 c35 10 31 27 -5 30 l-33 3 0 -50z"/>
<path d="M940 360 c0 -27 5 -50 10 -50 6 0 10 7 10 17 0 14 2 14 20 -2 21 -19
42 -13 23 6 -9 9 -9 16 0 29 14 24 -6 50 -39 50 -22 0 -24 -4 -24 -50z m42 15
c0 -5 -5 -11 -11 -13 -6 -2 -11 4 -11 13 0 9 5 15 11 13 6 -2 11 -8 11 -13z"/>
<path d="M1020 395 c0 -8 7 -15 15 -15 10 0 15 -11 15 -35 0 -19 5 -35 10 -35
6 0 10 15 10 34 0 21 6 36 16 40 25 10 6 26 -32 26 -24 0 -34 -5 -34 -15z"/>
<path d="M1125 401 c-3 -6 -12 -27 -19 -49 l-14 -39 44 1 c24 1 44 1 44 2 0 0
-7 21 -16 47 -15 46 -27 57 -39 38z m12 -53 c-3 -8 -6 -5 -6 6 -1 11 2 17 5
13 3 -3 4 -12 1 -19z"/>
<path d="M1205 385 c-3 -14 -7 -36 -10 -50 -4 -18 -1 -25 10 -25 9 0 15 9 16
23 l0 22 11 -22 c6 -13 14 -23 18 -23 4 0 11 10 15 23 l8 22 4 -22 c5 -28 23
-31 23 -4 0 34 -12 81 -21 81 -5 0 -14 -12 -20 -27 l-11 -28 -10 28 c-12 34
-26 35 -33 2z"/>
<path d="M1320 360 c0 -27 5 -50 10 -50 6 0 10 23 10 50 0 28 -4 50 -10 50 -5
0 -10 -22 -10 -50z"/>
<path d="M1367 404 c-4 -4 -7 -27 -7 -51 0 -32 4 -43 15 -43 10 0 15 10 15 28
l1 27 17 -27 c26 -44 42 -35 42 22 0 28 -4 50 -10 50 -5 0 -10 -14 -10 -30 l0
-30 -28 31 c-15 17 -31 27 -35 23z"/>
<path d="M1486 364 c-9 -26 -16 -48 -16 -48 0 -1 20 -1 44 -2 l44 -1 -16 45
c-9 25 -22 47 -28 49 -7 2 -19 -17 -28 -43z"/>
<path d="M368 327 c-27 -40 -48 -77 -48 -81 0 -4 24 -6 52 -4 l53 3 53 78 53
77 -58 0 -58 0 -47 -73z"/>
<path d="M762 220 c0 -19 2 -27 5 -17 3 10 10 14 16 11 7 -4 9 -4 5 1 -4 4 -2
15 5 24 10 14 10 14 -5 3 -13 -10 -17 -10 -21 0 -3 7 -5 -3 -5 -22z"/>
<path d="M822 220 c0 -19 2 -27 5 -17 2 9 2 25 0 35 -3 9 -5 1 -5 -18z"/>
<path d="M901 232 c-14 -27 -14 -43 1 -18 10 18 11 18 24 -5 7 -13 13 -19 13
-14 0 6 -6 21 -13 34 -13 24 -14 24 -25 3z"/>
<path d="M960 241 c0 -5 7 -12 16 -15 14 -5 15 -4 4 9 -14 17 -20 19 -20 6z"/>
<path d="M1002 225 c0 -16 2 -22 5 -12 2 9 2 23 0 30 -3 6 -5 -1 -5 -18z"/>
<path d="M1132 220 c0 -19 2 -27 5 -17 2 9 2 25 0 35 -3 9 -5 1 -5 -18z"/>
<path d="M1180 220 c0 -22 5 -30 18 -30 14 0 15 2 2 10 -11 7 -12 12 -4 18 9
5 8 11 -2 20 -12 11 -14 8 -14 -18z"/>
<path d="M1232 220 c0 -19 2 -29 5 -22 4 10 8 10 21 0 15 -11 15 -11 5 3 -9
11 -9 19 -2 26 8 8 7 13 -2 18 -7 5 -10 4 -5 -3 3 -6 2 -13 -3 -16 -5 -4 -12
2 -14 11 -3 10 -5 2 -5 -17z"/>
<path d="M1292 220 c0 -19 2 -27 5 -17 2 9 2 25 0 35 -3 9 -5 1 -5 -18z"/>
<path d="M1331 223 c-6 -14 -9 -28 -6 -31 3 -3 5 0 5 6 0 6 7 17 15 26 8 8 11
17 7 20 -5 3 -14 -6 -21 -21z"/>
<path d="M1394 226 c-3 -15 -4 -30 0 -33 3 -4 6 2 6 13 1 19 1 19 15 0 19 -25
19 -16 1 19 l-15 28 -7 -27z"/>
<path d="M1436 235 c-3 -8 -1 -15 4 -15 6 0 10 7 10 15 0 8 -2 15 -4 15 -2 0
-6 -7 -10 -15z"/>
<path d="M1501 219 c1 -25 3 -28 6 -11 l5 24 24 -23 24 -22 -1 34 c-1 25 -3
28 -6 11 l-5 -24 -24 23 -24 22 1 -34z"/>
<path d="M1597 244 c-3 -5 1 -15 9 -22 16 -14 18 -5 5 17 -5 7 -11 9 -14 5z"/>
<path d="M1034 208 c3 -17 49 -17 52 0 1 7 0 8 -3 2 -6 -13 -40 -13 -46 0 -3
6 -4 5 -3 -2z"/>
<path d="M1576 203 c-6 -14 -5 -15 5 -6 7 7 10 15 7 18 -3 3 -9 -2 -12 -12z"/>
<path d="M762 120 c0 -19 2 -27 5 -17 2 9 2 25 0 35 -3 9 -5 1 -5 -18z"/>
<path d="M868 120 c2 -16 5 -30 7 -30 2 0 5 14 7 30 3 19 0 30 -7 30 -7 0 -10
-11 -7 -30z"/>
<path d="M918 143 c7 -3 16 -2 19 1 4 3 -2 6 -13 5 -11 0 -14 -3 -6 -6z"/>
<path d="M970 141 c12 -9 12 -13 2 -19 -11 -7 -10 -11 0 -20 11 -9 14 -6 13
15 0 15 -7 28 -15 30 -13 4 -13 3 0 -6z"/>
<path d="M1155 139 c-11 -16 -1 -19 13 -3 7 8 8 14 3 14 -5 0 -13 -5 -16 -11z"/>
<path d="M1236 141 c-4 -5 3 -7 14 -4 23 6 26 13 6 13 -8 0 -17 -4 -20 -9z"/>
<path d="M790 133 c0 -4 12 -16 25 -26 14 -10 25 -14 25 -10 0 4 -12 16 -25
26 -14 10 -25 14 -25 10z"/>
<path d="M1011 113 c1 -18 3 -22 6 -10 5 18 6 18 24 1 10 -9 19 -13 19 -8 0 5
-12 17 -25 27 -25 18 -25 18 -24 -10z"/>
<path d="M1105 130 c3 -5 8 -10 11 -10 2 0 4 5 4 10 0 6 -5 10 -11 10 -5 0 -7
-4 -4 -10z"/>
<path d="M1202 115 c0 -16 2 -22 5 -12 2 9 2 23 0 30 -3 6 -5 -1 -5 -18z"/>
<path d="M1311 113 c1 -18 3 -22 6 -10 5 18 6 18 24 1 10 -9 19 -13 19 -8 0 5
-12 17 -25 27 -25 18 -25 18 -24 -10z"/>
<path d="M1450 110 c0 -16 4 -30 8 -30 5 0 7 13 4 30 -2 17 -6 30 -8 30 -2 0
-4 -13 -4 -30z"/>
<path d="M1086 104 c-3 -8 0 -11 10 -7 8 3 21 0 29 -7 13 -11 14 -10 10 3 -8
20 -42 28 -49 11z"/>
<path d="M1176 106 c6 -16 4 -18 -12 -12 -15 6 -17 5 -6 -5 9 -10 15 -10 24
-1 9 9 9 15 -1 25 -10 10 -11 8 -5 -7z"/>
<path d="M1387 106 c-3 -6 6 -11 19 -11 29 0 32 11 5 18 -11 3 -22 0 -24 -7z"/>
<path d="M908 88 c5 -5 16 -8 23 -6 8 3 3 7 -10 11 -17 4 -21 3 -13 -5z"/>
</g>
</svg>
