<svg width="17" height="25" viewBox="0 0 17 25" fill="none" xmlns="http://www.w3.org/2000/svg">
<g id="Group 1000004330">
<path id="Vector" d="M16.1473 6.54769L10.7352 0.608071C10.5806 0.438367 10.4259 0.353516 10.194 0.353516H2.46234C1.61186 0.353516 0.916016 1.11718 0.916016 2.05055V22.415C0.916016 23.3483 1.61186 24.112 2.46234 24.112H14.833C15.6834 24.112 16.3793 23.3483 16.3793 22.415V7.14165C16.3793 6.8871 16.302 6.7174 16.1473 6.54769ZM10.194 2.38996L14.5237 7.14165H10.194V2.38996ZM14.833 22.415H2.46234V2.05055H8.64765V7.14165C8.64765 8.07502 9.3435 8.83869 10.194 8.83869H14.833V22.415Z" fill="black" fill-opacity="0.45"/>
<path id="Vector_2" d="M4.00781 17.3245H13.2858V19.0215H4.00781V17.3245ZM4.00781 12.2334H13.2858V13.9304H4.00781V12.2334Z" fill="black" fill-opacity="0.45"/>
</g>
</svg>
