<svg width="20" height="20" viewBox="0 0 20 20" fill="none" xmlns="http://www.w3.org/2000/svg">
<path fill-rule="evenodd" clip-rule="evenodd" d="M6.66601 1.66536C6.66601 1.20513 6.29292 0.832031 5.83268 0.832031C5.37244 0.832031 4.99935 1.20513 4.99935 1.66536V2.4987H4.16602C3.50297 2.4987 2.86709 2.76209 2.39825 3.23093C1.92941 3.69977 1.66602 4.33566 1.66602 4.9987V15.832C1.66602 16.4951 1.92941 17.131 2.39825 17.5998C2.86709 18.0686 3.50297 18.332 4.16602 18.332H15.8327C16.4957 18.332 17.1316 18.0686 17.6004 17.5998C18.0693 17.131 18.3327 16.4951 18.3327 15.832V4.9987C18.3327 4.33566 18.0693 3.69977 17.6004 3.23093C17.1316 2.76209 16.4957 2.4987 15.8327 2.4987H15.416C14.9558 2.4987 14.5827 2.87179 14.5827 3.33203C14.5827 3.79227 14.9558 4.16536 15.416 4.16536H15.8327C16.0537 4.16536 16.2657 4.25316 16.4219 4.40944C16.5782 4.56572 16.666 4.77768 16.666 4.9987V7.4987H3.33268V4.9987C3.33268 4.77768 3.42048 4.56572 3.57676 4.40944C3.73304 4.25316 3.945 4.16536 4.16602 4.16536H4.99935V4.9987C4.99935 5.45894 5.37244 5.83203 5.83268 5.83203C6.29292 5.83203 6.66601 5.45894 6.66601 4.9987V1.66536ZM3.57676 16.4213C3.42048 16.265 3.33268 16.053 3.33268 15.832V9.16536H16.666V15.832C16.666 16.053 16.5782 16.265 16.4219 16.4213C16.2657 16.5776 16.0537 16.6654 15.8327 16.6654H4.16602C3.945 16.6654 3.73304 16.5776 3.57676 16.4213Z" fill="#5C5E64"/>
<path d="M13.3327 1.66536C13.3327 1.20513 12.9596 0.832031 12.4993 0.832031C12.0391 0.832031 11.666 1.20513 11.666 1.66536V2.4987H8.74935C8.28911 2.4987 7.91601 2.87179 7.91601 3.33203C7.91601 3.79227 8.28911 4.16536 8.74935 4.16536H11.666V4.9987C11.666 5.45894 12.0391 5.83203 12.4993 5.83203C12.9596 5.83203 13.3327 5.45894 13.3327 4.9987V1.66536Z" fill="#5C5E64"/>
</svg>
