<svg width="22" height="22" viewBox="0 0 22 22" fill="none" xmlns="http://www.w3.org/2000/svg">
<g opacity="0.45" clip-path="url(#clip0_388_9064)">
<path d="M8.97947 14.9525L5.26685 11.239L6.5041 10.0017L8.97947 12.4762L13.9285 7.52637L15.1666 8.76449L8.97947 14.9525Z" fill="black"/>
<path fill-rule="evenodd" clip-rule="evenodd" d="M0.891846 11.1777C0.891846 5.86211 5.20122 1.55273 10.5168 1.55273C15.8325 1.55273 20.1418 5.86211 20.1418 11.1777C20.1418 16.4934 15.8325 20.8027 10.5168 20.8027C5.20122 20.8027 0.891846 16.4934 0.891846 11.1777ZM10.5168 19.0527C9.48269 19.0527 8.45865 18.849 7.50321 18.4533C6.54777 18.0575 5.67964 17.4775 4.94838 16.7462C4.21712 16.0149 3.63705 15.1468 3.24129 14.1914C2.84554 13.2359 2.64185 12.2119 2.64185 11.1777C2.64185 10.1436 2.84554 9.11954 3.24129 8.1641C3.63705 7.20866 4.21712 6.34053 4.94838 5.60927C5.67964 4.87801 6.54777 4.29794 7.50321 3.90218C8.45865 3.50643 9.48269 3.30273 10.5168 3.30273C12.6054 3.30273 14.6085 4.13242 16.0853 5.60927C17.5622 7.08612 18.3918 9.08915 18.3918 11.1777C18.3918 13.2663 17.5622 15.2693 16.0853 16.7462C14.6085 18.223 12.6054 19.0527 10.5168 19.0527Z" fill="black"/>
</g>
<defs>
<clipPath id="clip0_388_9064">
<rect width="21" height="21" fill="white" transform="translate(0.0168457 0.677734)"/>
</clipPath>
</defs>
</svg>
