<svg width="25" height="25" viewBox="0 0 25 25" fill="none" xmlns="http://www.w3.org/2000/svg">
<path d="M12.5 23C13.8791 23.0018 15.245 22.731 16.5192 22.2032C17.7933 21.6754 18.9506 20.901 19.9245 19.9245C20.901 18.9506 21.6754 17.7933 22.2032 16.5192C22.731 15.245 23.0018 13.8791 23 12.5C23.0017 11.1209 22.731 9.75498 22.2032 8.48083C21.6754 7.20668 20.901 6.04939 19.9245 5.07546C18.9506 4.09897 17.7933 3.32458 16.5192 2.79679C15.245 2.269 13.8791 1.99822 12.5 2.00001C11.1209 1.99825 9.75498 2.26905 8.48083 2.79683C7.20668 3.32462 6.04939 4.09899 5.07546 5.07546C4.09899 6.04939 3.32462 7.20668 2.79683 8.48083C2.26905 9.75498 1.99825 11.1209 2.00001 12.5C1.99822 13.8791 2.269 15.245 2.79679 16.5192C3.32458 17.7933 4.09897 18.9506 5.07546 19.9245C6.04939 20.901 7.20668 21.6754 8.48083 22.2032C9.75498 22.731 11.1209 23.0017 12.5 23Z" stroke="white" stroke-width="3" stroke-linejoin="round"/>
<path d="M8.30005 12.4996L11.45 15.6496L17.75 9.34961" stroke="white" stroke-width="3" stroke-linecap="round" stroke-linejoin="round"/>
</svg>
