<svg width="24" height="25" viewBox="0 0 24 25" fill="none" xmlns="http://www.w3.org/2000/svg">
<g id="sign-out" opacity="0.2">
<g id="vector">
<path d="M12 4.71582C12 5.26811 11.5523 5.71582 11 5.71582H5L5 19.7158H11C11.5523 19.7158 12 20.1635 12 20.7158C12 21.2681 11.5523 21.7158 11 21.7158H5C3.89543 21.7158 3 20.8204 3 19.7158V5.71582C3 4.61125 3.89543 3.71582 5 3.71582H11C11.5523 3.71582 12 4.16354 12 4.71582Z" fill="black"/>
<path d="M15.0001 16.3017L17.5858 13.7159H9.00005C8.44776 13.7159 8.00005 13.2682 8.00005 12.7159C8.00005 12.1636 8.44777 11.7159 9.00005 11.7159L17.5858 11.7159L15 9.1301C14.6095 8.73958 14.6095 8.10641 15 7.71589C15.3905 7.32536 16.0237 7.32536 16.4142 7.71589L20.7072 12.0088C20.8947 12.1963 21 12.4507 21 12.7159C21 12.9811 20.8947 13.2355 20.7072 13.423L16.4143 17.7159C16.0238 18.1064 15.3906 18.1064 15.0001 17.7159C14.6096 17.3254 14.6096 16.6922 15.0001 16.3017Z" fill="black"/>
</g>
</g>
</svg>
