<svg width="22" height="27" viewBox="0 0 22 27" fill="none" xmlns="http://www.w3.org/2000/svg">
<g id="iconoir:media-video">
<g id="Group">
<path id="Vector" d="M18.6211 3.91996V22.214C18.6211 22.3873 18.5651 22.5535 18.4654 22.676C18.3657 22.7985 18.2305 22.8673 18.0895 22.8673H3.20611C3.06513 22.8673 2.92993 22.7985 2.83025 22.676C2.73056 22.5535 2.67456 22.3873 2.67456 22.214V3.91996C2.67456 3.74668 2.73056 3.58049 2.83025 3.45797C2.92993 3.33544 3.06513 3.2666 3.20611 3.2666H18.0895C18.2305 3.2666 18.3657 3.33544 18.4654 3.45797C18.5651 3.58049 18.6211 3.74668 18.6211 3.91996Z" stroke="black" stroke-width="1.5" stroke-linecap="round" stroke-linejoin="round"/>
<path id="Vector_2" d="M8.78554 9.26988C8.70476 9.21305 8.61325 9.1833 8.52018 9.1836C8.4271 9.18389 8.33572 9.21422 8.25517 9.27155C8.17463 9.32888 8.10774 9.4112 8.0612 9.51028C8.01466 9.60935 7.99011 9.72171 7.98999 9.83612V16.2967C7.98995 16.4112 8.0144 16.5237 8.06087 16.623C8.10735 16.7222 8.17422 16.8047 8.25479 16.8621C8.33536 16.9196 8.42681 16.95 8.51996 16.9504C8.61311 16.9507 8.70469 16.9209 8.78554 16.8641L13.3835 13.6343C13.4648 13.5772 13.5325 13.4946 13.5795 13.395C13.6266 13.2953 13.6514 13.1822 13.6514 13.067C13.6514 12.9518 13.6266 12.8386 13.5795 12.739C13.5325 12.6394 13.4648 12.5568 13.3835 12.4996L8.78554 9.26988Z" stroke="black" stroke-width="1.5" stroke-linecap="round" stroke-linejoin="round"/>
</g>
</g>
</svg>
