<svg width="23" height="27" viewBox="0 0 23 27" fill="none" xmlns="http://www.w3.org/2000/svg">
<g id="iconoir:media-video">
<g id="Group">
<path id="Vector" d="M19.571 3.91996V22.214C19.571 22.3873 19.515 22.5535 19.4153 22.676C19.3157 22.7985 19.1804 22.8673 19.0395 22.8673H4.15606C4.01509 22.8673 3.87988 22.7985 3.7802 22.676C3.68051 22.5535 3.62451 22.3873 3.62451 22.214V3.91996C3.62451 3.74668 3.68051 3.58049 3.7802 3.45797C3.87988 3.33544 4.01509 3.2666 4.15606 3.2666H19.0395C19.1804 3.2666 19.3157 3.33544 19.4153 3.45797C19.515 3.58049 19.571 3.74668 19.571 3.91996Z" stroke="black" stroke-opacity="0.45" stroke-width="1.5" stroke-linecap="round" stroke-linejoin="round"/>
<path id="Vector_2" d="M9.73549 9.26988C9.65471 9.21305 9.5632 9.1833 9.47013 9.1836C9.37705 9.18389 9.28567 9.21422 9.20513 9.27155C9.12458 9.32888 9.05769 9.4112 9.01115 9.51028C8.96462 9.60935 8.94006 9.72171 8.93994 9.83612V16.2967C8.9399 16.4112 8.96435 16.5237 9.01082 16.623C9.0573 16.7222 9.12417 16.8047 9.20474 16.8621C9.28531 16.9196 9.37676 16.95 9.46991 16.9504C9.56306 16.9507 9.65465 16.9209 9.73549 16.8641L14.3334 13.6343C14.4148 13.5772 14.4824 13.4946 14.5295 13.395C14.5765 13.2953 14.6013 13.1822 14.6013 13.067C14.6013 12.9518 14.5765 12.8386 14.5295 12.739C14.4824 12.6394 14.4148 12.5568 14.3334 12.4996L9.73549 9.26988Z" stroke="black" stroke-opacity="0.45" stroke-width="1.5" stroke-linecap="round" stroke-linejoin="round"/>
</g>
</g>
</svg>
