<svg width="21" height="21" viewBox="0 0 21 21" fill="none" xmlns="http://www.w3.org/2000/svg">
<path d="M10.5 0C11.8924 0 13.2277 0.553123 14.2123 1.53769C15.1969 2.52226 15.75 3.85761 15.75 5.25C15.75 6.64239 15.1969 7.97775 14.2123 8.96231C13.2277 9.94688 11.8924 10.5 10.5 10.5C9.10761 10.5 7.77225 9.94688 6.78769 8.96231C5.80312 7.97775 5.25 6.64239 5.25 5.25C5.25 3.85761 5.80312 2.52226 6.78769 1.53769C7.77225 0.553123 9.10761 0 10.5 0ZM10.5 13.125C16.3013 13.125 21 15.4744 21 18.375V21H0V18.375C0 15.4744 4.69875 13.125 10.5 13.125Z" fill="white"/>
</svg>
