<svg width="28" height="26" viewBox="0 0 28 26" fill="none" xmlns="http://www.w3.org/2000/svg">
<g id="carbon:location-company">
<path id="Vector" d="M14 24.375L6.61851 16.2914C6.51594 16.1701 6.41443 16.0479 6.31401 15.925C5.05375 14.3824 4.37266 12.4988 4.37501 10.5625C4.37501 8.19213 5.38907 5.91884 7.1941 4.24273C8.99914 2.56663 11.4473 1.625 14 1.625C16.5527 1.625 19.0009 2.56663 20.8059 4.24273C22.6109 5.91884 23.625 8.19213 23.625 10.5625C23.627 12.4978 22.9463 14.3805 21.6869 15.9226L21.686 15.925C21.686 15.925 21.4235 16.2451 21.3841 16.2882L14 24.375ZM7.71138 14.9459C7.71138 14.9459 7.91526 15.1962 7.96163 15.2498L14 21.8628L20.0463 15.2409C20.0848 15.1962 20.2895 14.9443 20.2904 14.9435C21.3204 13.6834 21.8771 12.1445 21.875 10.5625C21.875 8.6231 21.0453 6.76314 19.5685 5.39178C18.0916 4.02042 16.0886 3.25 14 3.25C11.9114 3.25 9.90839 4.02042 8.43154 5.39178C6.95469 6.76314 6.12501 8.6231 6.12501 10.5625C6.12285 12.1455 6.68015 13.6854 7.71138 14.9459Z" fill="white"/>
<path id="Vector_2" d="M18.375 14.625H16.625V8.125H11.375V14.625H9.625V8.125C9.625 7.69402 9.80937 7.2807 10.1376 6.97595C10.4658 6.67121 10.9109 6.5 11.375 6.5H16.625C17.0891 6.5 17.5342 6.67121 17.8624 6.97595C18.1906 7.2807 18.375 7.69402 18.375 8.125V14.625Z" fill="white"/>
<path id="Vector_3" d="M13.125 13H14.875V14.625H13.125V13ZM13.125 9.75H14.875V11.375H13.125V9.75Z" fill="white"/>
</g>
</svg>
