<svg width="23" height="27" viewBox="0 0 23 27" fill="none" xmlns="http://www.w3.org/2000/svg">
<g id="mdi:hand-coin-outline">
<path id="Vector" d="M15.0276 2.77539C12.4353 2.77539 10.3315 5.21459 10.3315 8.22004C10.3315 11.2255 12.4353 13.6647 15.0276 13.6647C17.6199 13.6647 19.7237 11.2255 19.7237 8.22004C19.7237 5.21459 17.6199 2.77539 15.0276 2.77539ZM15.0276 11.4868C13.4685 11.4868 12.2099 10.0277 12.2099 8.22004C12.2099 6.41242 13.4685 4.95325 15.0276 4.95325C16.5867 4.95325 17.8453 6.41242 17.8453 8.22004C17.8453 10.0277 16.5867 11.4868 15.0276 11.4868ZM17.8453 18.0204H15.9668C15.9668 16.7137 15.2624 15.5377 14.2105 15.0803L8.42484 12.5758H0.939209V24.554H6.57456V22.9859L13.1491 25.0985L20.6629 22.3761V21.2872C20.6629 19.4796 19.4044 18.0204 17.8453 18.0204ZM4.69611 22.3761H2.81766V14.7536H4.69611V22.3761ZM13.121 22.8226L6.57456 20.7427V14.7536H8.08672L13.553 17.1166C13.8723 17.2582 14.0884 17.6175 14.0884 18.0204C14.0884 18.0204 12.2099 17.966 11.9281 17.8571L9.69279 16.9968L9.10108 19.0658L11.3364 19.926C11.8154 20.1112 12.3132 20.1983 12.8204 20.1983H17.8453C18.2116 20.1983 18.5403 20.4596 18.6906 20.819L13.121 22.8226Z" fill="black"/>
</g>
</svg>
