<svg width="23" height="27" viewBox="0 0 23 27" fill="none" xmlns="http://www.w3.org/2000/svg">
<g id="mdi:hand-coin-outline" clip-path="url(#clip0_584_5298)">
<path id="Vector" d="M15.0776 2.25928C12.4854 2.25928 10.3815 4.69848 10.3815 7.70393C10.3815 10.7094 12.4854 13.1486 15.0776 13.1486C17.6699 13.1486 19.7738 10.7094 19.7738 7.70393C19.7738 4.69848 17.6699 2.25928 15.0776 2.25928ZM15.0776 10.9707C13.5185 10.9707 12.26 9.51155 12.26 7.70393C12.26 5.8963 13.5185 4.43714 15.0776 4.43714C16.6368 4.43714 17.8953 5.8963 17.8953 7.70393C17.8953 9.51155 16.6368 10.9707 15.0776 10.9707ZM17.8953 17.5043H16.0169C16.0169 16.1976 15.3124 15.0215 14.2605 14.5642L8.47489 12.0596H0.989258V24.0379H6.62461V22.4698L13.1992 24.5823L20.713 21.86V20.7711C20.713 18.9635 19.4544 17.5043 17.8953 17.5043ZM4.74616 21.86H2.86771V14.2375H4.74616V21.86ZM13.171 22.3065L6.62461 20.2266V14.2375H8.13676L13.6031 16.6005C13.9224 16.7421 14.1384 17.1014 14.1384 17.5043C14.1384 17.5043 12.26 17.4499 11.9782 17.341L9.74284 16.4807L9.15113 18.5497L11.3865 19.4099C11.8655 19.595 12.3633 19.6822 12.8705 19.6822H17.8953C18.2616 19.6822 18.5903 19.9435 18.7406 20.3029L13.171 22.3065Z" fill="black" fill-opacity="0.45"/>
</g>
<defs>
<clipPath id="clip0_584_5298">
<rect width="22.5414" height="26.1343" fill="white" transform="translate(0.0500488 0.081543)"/>
</clipPath>
</defs>
</svg>
