<svg width="20" height="20" viewBox="0 0 20 20" fill="none" xmlns="http://www.w3.org/2000/svg">
<path fill-rule="evenodd" clip-rule="evenodd" d="M12.9993 1.66797C12.6457 1.66797 12.3066 1.80844 12.0565 2.05849C11.8065 2.30854 11.666 2.64768 11.666 3.0013V6.66797H7.99935C7.64573 6.66797 7.30659 6.80844 7.05654 7.05849C6.80649 7.30854 6.66601 7.64768 6.66601 8.0013V12.5013H2.99935C2.64573 12.5013 2.30659 12.6418 2.05654 12.8918C1.80649 13.1419 1.66602 13.481 1.66602 13.8346V17.0013C1.66602 17.3549 1.80649 17.6941 2.05654 17.9441C2.30659 18.1942 2.64573 18.3346 2.99935 18.3346H16.9993C17.353 18.3346 17.6921 18.1942 17.9422 17.9441C18.1922 17.6941 18.3327 17.3549 18.3327 17.0013V3.0013C18.3327 2.64768 18.1922 2.30854 17.9422 2.05849C17.6921 1.80844 17.353 1.66797 16.9993 1.66797H12.9993ZM8.33268 8.33463H11.666V16.668H8.33268V8.33463ZM16.666 16.668H13.3327V3.33464H16.666V16.668ZM6.66601 14.168V16.668H3.33268V14.168H6.66601Z" fill="#5C5E64"/>
</svg>
