<svg width="20" height="22" viewBox="0 0 20 22" fill="none" xmlns="http://www.w3.org/2000/svg">
<g id="Icon 3">
<path id="Color" fill-rule="evenodd" clip-rule="evenodd" d="M11.6219 18.0319C11.5678 18.0319 11.5121 18.0293 11.4564 18.023C10.7457 17.9455 10.1884 17.3922 10.035 16.6127L7.8682 5.57211L5.63681 11.2581C5.5084 11.5842 5.21686 11.7953 4.89543 11.7953H2.47264C2.02604 11.7953 1.66504 11.3962 1.66504 10.9044C1.66504 10.4117 2.02604 10.0135 2.47264 10.0135H4.36565L6.38949 4.85579C6.67619 4.12878 7.30773 3.70558 8.02568 3.78488C8.73637 3.86239 9.29361 4.41566 9.44706 5.19524L11.6138 16.2358L13.8452 10.5498C13.9736 10.2237 14.2644 10.0135 14.5866 10.0135H17.0094C17.456 10.0135 17.817 10.4117 17.817 10.9044C17.817 11.3962 17.456 11.7953 17.0094 11.7953H15.1164L13.0926 16.9521C12.8285 17.623 12.2623 18.0319 11.6219 18.0319Z" fill="black" fill-opacity="0.45"/>
</g>
</svg>
