<svg width="20" height="23" viewBox="0 0 20 23" fill="none" xmlns="http://www.w3.org/2000/svg">
<path d="M0.26123 11.0674C0.265908 9.67939 0.504409 8.3064 0.962821 7.02851C1.42123 5.75062 2.09037 4.59342 2.93121 3.62442C3.77204 2.65542 4.76773 1.89402 5.86018 1.38465C6.95264 0.87528 8.11998 0.628135 9.29411 0.657635C10.4682 0.687134 11.6256 0.992687 12.6988 1.55647C13.7719 2.12025 14.7394 2.93096 15.5446 3.94132C16.3498 4.95168 16.9767 6.14144 17.3888 7.4412C17.8008 8.74096 17.9898 10.1247 17.9445 11.5117C17.7411 11.4463 17.5023 11.3718 17.2414 11.3026C16.0474 10.9794 14.815 10.9052 13.5994 11.0831C12.9683 11.1707 12.3483 11.3479 11.7531 11.611C11.7237 11.3715 11.6831 11.1342 11.6314 10.9001C11.4899 10.2585 11.145 9.73975 10.7867 9.20138L10.6286 8.96486C10.4517 8.69568 10.2284 8.34025 10.1466 7.95869C10.0931 7.72279 10.1027 7.47307 10.1742 7.24392C10.2538 6.99564 10.3987 6.80486 10.5634 6.65851C11.0366 6.24036 11.8094 5.33481 12.4905 4.49982C12.8244 4.08951 13.1273 3.70664 13.3463 3.42569L13.3529 3.41785C12.012 2.37563 10.4291 1.85438 8.82537 1.92689C8.95473 2.21698 9.10399 2.58548 9.23666 3.00232C9.54734 3.97713 9.81932 5.37662 9.33064 6.60624C8.88397 7.73002 8.11777 8.02272 7.52626 8.20305L7.41902 8.23572C6.85958 8.40559 6.58428 8.48922 6.39079 8.83681C6.20284 9.17263 6.24927 9.58686 6.4317 10.2912L6.47482 10.4532C6.54779 10.7289 6.63292 11.0504 6.67715 11.3522C6.73243 11.726 6.74459 12.1833 6.55221 12.6198C6.38549 13.0197 6.1193 13.3498 5.78933 13.5658C5.53046 13.7208 5.25183 13.8245 4.96454 13.8729L4.86725 13.8925C4.41615 13.9866 4.15412 14.0402 3.90867 14.3511C3.71187 14.5994 3.5991 15.015 3.53608 15.5808C3.51139 15.8127 3.49222 16.0454 3.47859 16.2786L3.46974 16.4027C3.45568 16.6682 3.4265 16.9324 3.3824 17.1933L3.37797 17.2194C4.50641 18.6892 6.00919 19.6846 7.65894 20.055C7.45329 20.4418 7.26534 20.8403 7.09065 21.2493C5.14755 20.7111 3.41546 19.4124 2.17566 17.564C0.935873 15.7156 0.261206 13.4261 0.26123 11.0674ZM18.9739 13.3371C18.9243 13.2425 18.8552 13.1644 18.7729 13.1102C18.6907 13.056 18.5981 13.0275 18.504 13.0274H18.4951C18.4517 13.0211 18.4085 13.0124 18.3658 13.0013C18.2549 12.9697 18.1446 12.9349 18.0352 12.8968L17.9302 12.8628C17.6225 12.7579 17.3124 12.6629 17.0003 12.5779C15.9305 12.2873 14.8259 12.2201 13.7365 12.3793C12.4076 12.5753 11.3915 13.1072 10.6983 13.8716C10.0017 14.6399 9.65901 15.6174 9.65901 16.6157C9.65901 16.8548 9.67449 17.0809 9.70102 17.2952C10.8619 16.0969 12.2937 15.1286 13.8758 14.3812C13.9435 14.3472 14.0163 14.3295 14.0899 14.3291C14.1634 14.3288 14.2363 14.3458 14.3042 14.3791C14.3722 14.4125 14.4338 14.4615 14.4855 14.5234C14.5372 14.5852 14.5779 14.6587 14.6053 14.7394C14.6326 14.8201 14.6461 14.9064 14.6449 14.9933C14.6437 15.0803 14.6278 15.166 14.5981 15.2456C14.5685 15.3252 14.5257 15.397 14.4723 15.4568C14.4189 15.5166 14.356 15.5632 14.2871 15.5938C13.4426 15.9883 12.6294 16.4707 11.857 17.0351C10.0305 18.2948 8.89281 19.9125 8.05917 21.8831C7.99893 22.0372 7.99182 22.213 8.03935 22.3732C8.08688 22.5334 8.18531 22.6655 8.3138 22.7414C8.44229 22.8174 8.59074 22.8312 8.72772 22.78C8.86469 22.7288 8.97941 22.6166 9.0476 22.4672C9.47216 21.4649 9.97964 20.5646 10.6485 19.7649C10.8261 20.1474 11.0426 20.5028 11.2931 20.8233C11.8061 21.4767 12.6342 22.1745 13.8051 22.1745C14.526 22.1745 15.1252 21.9562 15.6161 21.5786C16.1026 21.2049 16.4542 20.6966 16.7173 20.1621C17.1253 19.3389 17.3574 18.3589 17.5299 17.6323C17.5741 17.4494 17.6128 17.2834 17.6504 17.1397C17.8336 16.4644 18.0783 15.8147 18.3801 15.2018C18.5106 14.9313 18.6333 14.6961 18.7384 14.4936L18.7572 14.4596C18.8489 14.2832 18.9418 14.1068 18.9982 13.9722C19.0402 13.8727 19.06 13.7621 19.0558 13.6509C19.0515 13.5398 19.0233 13.4318 18.9739 13.3371Z" fill="black"/>
</svg>
