<svg width="23" height="27" viewBox="0 0 23 27" fill="none" xmlns="http://www.w3.org/2000/svg">
<g id="fluent:earth-leaf-20-filled">
<path id="Vector" d="M2.26123 13.0674C2.26591 11.6794 2.50441 10.3064 2.96282 9.02851C3.42123 7.75062 4.09037 6.59342 4.93121 5.62442C5.77204 4.65542 6.76773 3.89402 7.86018 3.38465C8.95264 2.87528 10.12 2.62814 11.2941 2.65763C12.4682 2.68713 13.6256 2.99269 14.6988 3.55647C15.7719 4.12025 16.7394 4.93096 17.5446 5.94132C18.3498 6.95168 18.9767 8.14144 19.3888 9.4412C19.8008 10.741 19.9898 12.1247 19.9445 13.5117C19.7411 13.4463 19.5023 13.3718 19.2414 13.3026C18.0474 12.9794 16.815 12.9052 15.5994 13.0831C14.9683 13.1707 14.3483 13.3479 13.7531 13.611C13.7237 13.3715 13.6831 13.1342 13.6314 12.9001C13.4899 12.2585 13.145 11.7397 12.7867 11.2014L12.6286 10.9649C12.4517 10.6957 12.2284 10.3403 12.1466 9.95869C12.0931 9.72279 12.1027 9.47307 12.1742 9.24392C12.2538 8.99564 12.3987 8.80486 12.5634 8.65851C13.0366 8.24036 13.8094 7.33481 14.4905 6.49982C14.8244 6.08951 15.1273 5.70664 15.3463 5.42569L15.3529 5.41785C14.012 4.37563 12.4291 3.85438 10.8254 3.92689C10.9547 4.21698 11.104 4.58548 11.2367 5.00232C11.5473 5.97713 11.8193 7.37662 11.3306 8.60624C10.884 9.73002 10.1178 10.0227 9.52626 10.203L9.41902 10.2357C8.85958 10.4056 8.58428 10.4892 8.39079 10.8368C8.20284 11.1726 8.24927 11.5869 8.4317 12.2912L8.47482 12.4532C8.54779 12.7289 8.63292 13.0504 8.67715 13.3522C8.73243 13.726 8.74459 14.1833 8.55221 14.6198C8.38549 15.0197 8.1193 15.3498 7.78933 15.5658C7.53046 15.7208 7.25183 15.8245 6.96454 15.8729L6.86725 15.8925C6.41615 15.9866 6.15412 16.0402 5.90867 16.3511C5.71187 16.5994 5.5991 17.015 5.53608 17.5808C5.51139 17.8127 5.49222 18.0454 5.47859 18.2786L5.46974 18.4027C5.45568 18.6682 5.4265 18.9324 5.3824 19.1933L5.37797 19.2194C6.50641 20.6892 8.00919 21.6846 9.65894 22.055C9.45329 22.4418 9.26534 22.8403 9.09065 23.2493C7.14755 22.7111 5.41546 21.4124 4.17566 19.564C2.93587 17.7156 2.26121 15.4261 2.26123 13.0674ZM20.9739 15.3371C20.9243 15.2425 20.8552 15.1644 20.7729 15.1102C20.6907 15.056 20.5981 15.0275 20.504 15.0274H20.4951C20.4517 15.0211 20.4085 15.0124 20.3658 15.0013C20.2549 14.9697 20.1446 14.9349 20.0352 14.8968L19.9302 14.8628C19.6225 14.7579 19.3124 14.6629 19.0003 14.5779C17.9305 14.2873 16.8259 14.2201 15.7365 14.3793C14.4076 14.5753 13.3915 15.1072 12.6983 15.8716C12.0017 16.6399 11.659 17.6174 11.659 18.6157C11.659 18.8548 11.6745 19.0809 11.701 19.2952C12.8619 18.0969 14.2937 17.1286 15.8758 16.3812C15.9435 16.3472 16.0163 16.3295 16.0899 16.3291C16.1634 16.3288 16.2363 16.3458 16.3042 16.3791C16.3722 16.4125 16.4338 16.4615 16.4855 16.5234C16.5372 16.5852 16.5779 16.6587 16.6053 16.7394C16.6326 16.8201 16.6461 16.9064 16.6449 16.9933C16.6437 17.0803 16.6278 17.166 16.5981 17.2456C16.5685 17.3252 16.5257 17.397 16.4723 17.4568C16.4189 17.5166 16.356 17.5632 16.2871 17.5938C15.4426 17.9883 14.6294 18.4707 13.857 19.0351C12.0305 20.2948 10.8928 21.9125 10.0592 23.8831C9.99893 24.0372 9.99182 24.213 10.0393 24.3732C10.0869 24.5334 10.1853 24.6655 10.3138 24.7414C10.4423 24.8174 10.5907 24.8312 10.7277 24.78C10.8647 24.7288 10.9794 24.6166 11.0476 24.4672C11.4722 23.4649 11.9796 22.5646 12.6485 21.7649C12.8261 22.1474 13.0426 22.5028 13.2931 22.8233C13.8061 23.4767 14.6342 24.1745 15.8051 24.1745C16.526 24.1745 17.1252 23.9562 17.6161 23.5786C18.1026 23.2049 18.4542 22.6966 18.7173 22.1621C19.1253 21.3389 19.3574 20.3589 19.5299 19.6323C19.5741 19.4494 19.6128 19.2834 19.6504 19.1397C19.8336 18.4644 20.0783 17.8147 20.3801 17.2018C20.5106 16.9313 20.6333 16.6961 20.7384 16.4936L20.7572 16.4596C20.8489 16.2832 20.9418 16.1068 20.9982 15.9722C21.0402 15.8727 21.06 15.7621 21.0558 15.6509C21.0515 15.5398 21.0233 15.4318 20.9739 15.3371Z" fill="black" fill-opacity="0.45"/>
</g>
</svg>
